PathFileType        4      (X/Y/Z)      C:\Users\pc\Desktop\IMUTRC\Sujet_01\Sujet_01_velo_60.trc         
DataRate	CameraRate	NumFrames	NumMarkers	Units	OrigDataRate	OrigDataStartFrame	OrigNumFrames
60.0	60.0	4	64	mm	60.0	1199	1370
Frame#	Time	pHipOrigin			pRightASI			pLeftASI			pRightCSI			pLeftCSI			pRightIschialTub			pLeftIschialTub			pSacrum			pL5SpinalProcess			pL3SpinalProcess			pT12SpinalProcess			pIJ			pT4SpinalProcess			pT8SpinalProcess			pPX			pC7SpinalProcess			pTopOfHead			pRightAuricularis			pLeftAuricularis			pBackOfHead			pRightAcromion			pLeftAcromion			pRightArmLatEpicondyle			pRightArmMedEpicondyle			pLeftArmLatEpicondyle			pLeftArmMedEpicondyle			pRightUlnarStyloid			pRightRadialStyloid			pRightOlecranon			pLeftUlnarStyloid			pLeftRadialStyloid			pLeftOlecranon			pRightTopOfHand			pRightPinky			pRightBallHand			pLeftTopOfHand			pLeftPinky			pLeftBallHand			pRightGreaterTrochanter			pRightKneeLatEpicondyle			pRightKneeMedEpicondyle			pRightPatella			pLeftGreaterTrochanter			pLeftKneeLatEpicondyle			pLeftKneeMedEpicondyle			pLeftPatella			pRightTibialTub			pRightLatMalleolus			pRightMedMalleolus			pLeftTibialTub			pLeftLatMalleolus			pLeftMedMalleolus			pRightHeelFoot			pRightFirstMetatarsal			pRightFifthMetatarsal			pRightPivotFoot			pRightHeelCenter			pRightToe			pLeftHeelFoot			pLeftFirstMetatarsal			pLeftFifthMetatarsal			pLeftPivotFoot			pLeftHeelCenter			pLeftToe			
		X1	Y1	Z1	X2	Y2	Z2	X3	Y3	Z3	X4	Y4	Z4	X5	Y5	Z5	X6	Y6	Z6	X7	Y7	Z7	X8	Y8	Z8	X9	Y9	Z9	X10	Y10	Z10	X11	Y11	Z11	X12	Y12	Z12	X13	Y13	Z13	X14	Y14	Z14	X15	Y15	Z15	X16	Y16	Z16	X17	Y17	Z17	X18	Y18	Z18	X19	Y19	Z19	X20	Y20	Z20	X21	Y21	Z21	X22	Y22	Z22	X23	Y23	Z23	X24	Y24	Z24	X25	Y25	Z25	X26	Y26	Z26	X27	Y27	Z27	X28	Y28	Z28	X29	Y29	Z29	X30	Y30	Z30	X31	Y31	Z31	X32	Y32	Z32	X33	Y33	Z33	X34	Y34	Z34	X35	Y35	Z35	X36	Y36	Z36	X37	Y37	Z37	X38	Y38	Z38	X39	Y39	Z39	X40	Y40	Z40	X41	Y41	Z41	X42	Y42	Z42	X43	Y43	Z43	X44	Y44	Z44	X45	Y45	Z45	X46	Y46	Z46	X47	Y47	Z47	X48	Y48	Z48	X49	Y49	Z49	X50	Y50	Z50	X51	Y51	Z51	X52	Y52	Z52	X53	Y53	Z53	X54	Y54	Z54	X55	Y55	Z55	X56	Y56	Z56	X57	Y57	Z57	X58	Y58	Z58	X59	Y59	Z59	X60	Y60	Z60	X61	Y61	Z61	X62	Y62	Z62	X63	Y63	Z63	X64	Y64	Z64	
1199	19.967	0.0	1249.99075	7.653985854756496E-14	32.05909999999999	1334.91594	139.36281000000008	106.86368000000002	1330.82998	-98.5031699999999	7.543319999999986	1400.66854	107.24085000000008	69.02136000000002	1397.27404	-88.2568299999999	-70.34145	1205.35945	32.373410000000064	-39.539559999999994	1203.6622	-65.37542999999992	-55.7577	1276.95811	-17.97823999999993	-10.62351	1365.59211	-4.274549999999917	43.43694	1457.62059	9.177700000000094	96.17731	1539.84276	21.749900000000107	326.18567	1572.90764	72.66730000000014	222.77934	1664.24466	50.100210000000125	158.59827	1613.39012	36.082210000000124	241.38619	1499.73745	54.18617000000012	258.92441	1692.40638	58.14641000000014	448.26171	1843.08417	64.80968000000017	390.49246	1772.617	135.21399000000017	400.36163	1757.34178	4.651710000000156	352.713	1793.48685	63.36388000000015	218.63051999999996	1656.19845	230.76269000000013	315.37358	1635.26574	-105.85789999999986	290.73206999999996	1436.43644	312.41911000000016	274.32534999999996	1409.34335	268.79359000000017	443.1071	1429.71031	-114.02982999999986	405.32765	1398.84557	-91.14842999999988	378.54886999999997	1273.7522	405.5162300000001	410.67083999999994	1274.00365	375.4686800000001	265.33622999999994	1426.88157	305.56726000000015	588.1274	1281.4841	-115.97851999999985	590.51612	1283.05563	-72.10154999999985	421.73437	1417.45242	-125.34480999999985	551.91948	1254.45388	448.7017300000001	471.7088499999999	1256.8426	457.9423000000001	417.5855399999999	1258.03695	416.9569300000001	741.88538	1236.34991	-38.03089999999983	688.57926	1251.75086	-96.74305999999984	621.63231	1262.50008	-100.64043999999986	-12.572200000000018	1239.55582	145.20888000000008	292.05215	1081.20899	186.69713000000007	306.76162	1081.02041	121.13312000000012	314.43066	1115.65682	154.88947000000007	61.918070000000014	1232.45253	-134.39678999999992	295.06948	987.92329	-60.9122999999999	278.5999	984.40307	4.148830000000094	309.84181	1014.45063	-18.7325699999999	344.72966	1050.40711	162.62138000000007	255.15274999999997	681.85314	185.69136000000006	267.91353	680.03017	126.91633000000007	319.89957	942.91482	-34.1963799999999	133.26529000000002	649.41687	-187.13715999999994	123.14468000000001	632.38154	-130.31082999999995	225.29377999999997	543.4961	122.57893000000006	404.88762	541.04452	172.61627000000007	362.33073999999993	533.37548	249.4952600000001	406.08198	536.39281	222.0878700000001	263.1361	539.72444	143.19733000000005	470.45162999999997	537.33573	257.8557700000001	10.686370000000025	564.68026	-199.58363999999997	121.95032000000002	446.62732	-107.49228999999995	152.68934000000002	443.23283	-190.15448999999995	154.26086000000004	428.46049	-140.55716999999996	39.28812000000002	534.44412	-187.70290999999997	207.56698000000003	382.57197	-118.87012999999995	
1200	19.983	0.0	1249.99075	7.653985854756496E-14	33.56776999999999	1334.53878	139.17423000000008	105.79504000000001	1331.08142	-99.3832199999999	8.674819999999988	1400.35423	107.55515000000008	68.07845000000002	1397.52549	-88.6339899999999	-69.96428	1205.29659	33.002020000000066	-40.29388999999999	1203.85078	-65.06111999999993	-55.94628	1277.02097	-17.34962999999993	-10.68637	1365.52924	-3.960239999999918	43.43694	1457.62059	9.051980000000095	96.17731	1539.90563	21.184150000000106	326.49997	1573.41053	70.46717000000014	222.77934	1664.55896	48.34010000000013	158.59827	1613.5787	34.88785000000012	241.7005	1500.11462	52.67751000000012	258.92441	1692.78355	56.00914000000014	448.01026	1843.90136	62.73527000000017	389.98957	1773.4342	132.95099000000016	400.67594	1757.90753	2.5144400000001563	352.58728	1794.0526	60.84944000000015	219.63628999999997	1656.57562	229.12830000000014	314.61925	1635.51719	-107.99517999999986	291.17209999999994	1436.75074	311.22475000000014	274.70251999999994	1409.5948	267.66209000000015	442.28991	1429.45887	-115.22418999999985	404.4476	1398.71985	-92.09134999999988	378.04597999999993	1273.94078	405.1390700000001	410.16794999999996	1273.87792	375.0915200000001	265.7762599999999	1427.25873	304.43577000000016	587.12163	1281.04408	-116.54426999999984	589.51035	1282.74132	-72.66729999999984	420.91718	1417.20098	-126.41344999999986	551.47945	1254.76818	448.07312000000013	471.2688299999999	1257.03118	457.5022700000001	417.0826599999999	1258.16268	416.5169100000001	740.81674	1235.97275	-38.40805999999983	687.51063	1251.37369	-97.24594999999984	620.56367	1262.12292	-101.20618999999986	-12.572200000000018	1237.41855	145.27174000000008	283.81736	1063.60792	184.55986000000007	298.77828	1063.92222	119.05871000000012	308.01884	1097.55285	153.50653000000008	61.72949000000001	1232.89256	-134.27106999999992	301.29272	996.09522	-56.134859999999904	284.57169	993.01503	8.926260000000095	315.05927	1023.62833	-14.269439999999898	337.62637	1033.74895	160.67269000000007	255.15274999999997	663.56059	183.30264000000005	268.10211	661.98907	124.59048000000007	324.73986	950.89817	-30.487579999999905	131.56805000000003	665.38356	-190.21734999999995	120.88168000000002	647.40532	-133.83103999999994	226.23669999999998	525.20356	120.00163000000006	405.76768	523.69489	170.4790000000001	363.0222099999999	515.71155	247.23227000000009	406.83631	518.98032	219.9506000000001	264.07901	521.62048	140.68289000000004	471.08023999999995	520.3004	255.8442200000001	8.549090000000025	581.02411	-203.79531999999998	119.18443000000002	461.71396	-112.64688999999996	150.04918000000004	459.01093	-195.24622999999994	151.49498000000003	443.73571	-145.83748999999995	37.02512000000002	550.59939	-192.16603999999998	204.61252000000002	397.47003	-124.46475999999994	
1201	20.0	0.0	1249.99075	7.653985854756496E-14	35.13928999999999	1334.09875	139.04851000000008	104.78927000000002	1331.27001	-100.3261399999999	9.932039999999988	1400.03993	107.86946000000009	67.19840000000002	1397.71407	-88.9482999999999	-69.64997	1205.23372	33.63063000000006	-40.98535999999999	1204.03937	-64.74681999999993	-56.13486	1277.08383	-16.658159999999928	-10.62351	1365.52924	-3.5830799999999177	43.4998	1457.62059	8.989120000000094	96.30303	1539.90563	20.618400000000108	326.87714	1573.85056	68.32989000000015	222.90506	1664.81041	46.64285000000013	158.66113	1613.64156	33.75635000000012	242.07767	1500.36606	51.35743000000012	259.05013	1693.09785	53.93473000000014	447.82168	1844.6557	60.59799000000017	389.6124	1774.18853	130.62513000000018	401.0531	1758.41042	0.2514400000001568	352.52442	1794.55549	58.27214000000015	220.70492999999996	1656.95278	227.49392000000014	313.99064	1635.58005	-110.06958999999986	291.8007099999999	1437.12791	310.15612000000016	275.07967999999994	1409.9091	266.7191700000002	441.59844	1429.0817	-116.35568999999985	403.81899	1398.53126	-93.03425999999988	377.54308999999995	1274.19223	404.76190000000014	409.6650599999999	1273.7522	374.71435000000014	266.34200999999996	1427.82448	303.42999000000015	586.30444	1280.54119	-117.11001999999985	588.63029	1282.3013	-73.23304999999985	420.28857	1416.88667	-127.41921999999985	551.10228	1254.89391	447.5702400000001	470.89165999999994	1257.1569	457.0622400000001	416.64262999999994	1258.22554	416.13974000000013	739.87383	1235.407	-38.78522999999983	686.63057	1250.80794	-97.62310999999984	619.74648	1261.62003	-101.70907999999986	-12.509340000000018	1235.53272	145.33460000000008	274.76538	1046.57259	182.0454200000001	289.85202	1047.26406	116.6071300000001	300.66411	1079.76319	151.62070000000008	61.60377000000001	1233.45831	-134.14534999999992	307.64168	1004.95862	-51.4202899999999	290.73207	1002.38132	13.577970000000098	320.40246	1033.49751	-9.932039999999898	329.70588	1017.59368	158.5354100000001	254.08410999999998	645.89665	180.97678000000005	267.22206	644.51371	122.26462000000006	329.76874	959.76157	-26.7159199999999	131.19088000000002	681.41311	-192.48034999999993	120.00163000000002	662.55481	-136.47120999999996	225.23091999999997	507.79106	117.23574000000006	404.57332	505.90523	168.0902800000001	361.70212999999995	497.7333	244.71783000000008	405.5791	501.06494	217.4990200000001	262.94751	504.14512	137.97987000000006	469.7601599999999	502.19643	253.5812300000001	7.920480000000026	596.86508	-206.81264999999996	118.43010000000001	476.98918	-116.29282999999995	149.42057000000003	474.78904	-198.89216999999994	150.80351000000002	459.19952	-149.54628999999994	36.33365000000002	566.3775	-195.37194999999997	203.85818000000003	412.80811	-128.42499999999995	
1202	20.017	0.0	1249.99075	7.653985854756496E-14	36.64795999999998	1333.65872	138.92278000000007	103.78349000000001	1331.45859	-101.1433299999999	11.252119999999987	1399.72562	108.24662000000008	66.44406000000001	1397.90265	-89.1997399999999	-69.33567	1205.17086	34.25924000000006	-41.73969999999999	1204.29081	-64.49536999999992	-56.26058	1277.20956	-15.966689999999929	-10.56065	1365.52924	-3.2059099999999177	43.75125	1457.55773	8.926260000000093	96.55448	1539.84276	20.052660000000106	327.38003	1574.22772	66.38120000000015	223.15651	1664.93613	44.94561000000013	158.97544	1613.70443	32.62485000000012	242.58055	1500.55465	50.10021000000012	259.36444	1693.3493	51.86032000000014	447.82168	1845.28431	58.27214000000017	389.48668	1774.88	128.29928000000018	401.49313	1758.78759	-1.9486899999998433	352.65014	1794.93265	55.75770000000015	221.89928999999998	1657.51853	225.92239000000015	313.73919	1635.3286	-112.01827999999986	292.55503999999996	1437.75652	309.27606000000014	275.6454299999999	1410.41199	266.02770000000015	441.28414	1428.64168	-117.36145999999985	403.44182	1398.21696	-93.97717999999988	377.16592999999995	1274.50653	404.51046000000014	409.22502999999995	1273.68934	374.46291000000014	267.03347999999994	1428.57882	302.61280000000016	585.80155	1279.91258	-117.61290999999984	588.06454	1281.73555	-73.73593999999984	419.97426	1416.44664	-128.42499999999987	550.72512	1254.64246	447.1302100000001	470.51449999999994	1257.1569	456.68508000000014	416.20259999999996	1258.35126	415.88830000000013	739.1195	1234.46408	-39.03666999999983	686.06482	1249.92789	-98.00027999999985	619.18073	1260.92856	-102.14910999999985	-12.446480000000017	1233.83547	145.39747000000008	265.02193	1030.22873	179.27954000000008	280.17142	1031.04593	113.84125000000009	292.55504	1062.47642	149.29485000000008	61.47805000000002	1234.14978	-133.95676999999992	314.17922	1014.63921	-47.0200199999999	296.95531	1012.37621	17.915380000000095	325.8085	1044.12101	-5.846069999999896	320.84248	1002.12987	156.0209700000001	252.26114999999996	629.11277	179.02809000000005	265.52481	627.91841	120.31593000000007	335.17479	969.44216	-23.1328399999999	132.25952000000004	697.44266	-194.05186999999992	120.56738000000001	677.83003	-138.35702999999995	222.15073	491.63579	114.46986000000005	401.49313	487.73841	165.45012000000008	358.43334999999996	479.56648	242.0148000000001	402.37318	482.64667	214.85886000000008	259.86732	487.48696	135.21399000000005	466.55424999999997	482.89811	250.94106000000008	8.989120000000025	612.07744	-208.76133999999996	120.00163000000002	492.45298	-118.43009999999995	150.99209000000002	490.50429	-200.96657999999994	152.43790000000004	474.8519	-151.68355999999994	37.590870000000024	581.65272	-197.32063999999997	205.68115000000003	428.64908	-130.56226999999996	
